# xmcd CD database file
#
# Track frame offsets:
#	150
#	52483
#	63733
#	100157
#	113646
#	159219
#	180190
#	201003
#	222659
#	233689
#	279247
#
# Disc length: 3880 seconds
#
# Revision: 0
# Processed by: cddbd v1.4PL0 Copyright (c) Steve Scherf et al.
# Submitted via: CDex 1.51
#
DISCID=980f260b
DTITLE=DJ Mike Soundstorm - Cuerito Mix LE
DYEAR=2002
DGENRE=Merengue
TTITLE0=trulla mix
TTITLE1=La bomba dance
TTITLE2=crismas merenhouse mix
TTITLE3=navidades perreando
TTITLE4=trulla mix sin colaos
TTITLE5=trulla mix quiki version
TTITLE6=crismas merenhouse quiki version
TTITLE7=trulla mix quiki mix sin colaos
TTITLE8=la bomba karaoke
TTITLE9=trulla mix instrumental
TTITLE10=navidades perreando karaoke
EXTD=YEAR: 2002
EXTT0=
EXTT1=
EXTT2=
EXTT3=
EXTT4=
EXTT5=
EXTT6=
EXTT7=
EXTT8=
EXTT9=
EXTT10=
PLAYORDER=
